<svg width="20" height="20" viewBox="0 0 20 20" fill="none" xmlns="http://www.w3.org/2000/svg">
<path d="M9.99998 17.5C9.8903 17.5006 9.78158 17.4796 9.68005 17.4382C9.57852 17.3967 9.48618 17.3356 9.40831 17.2583L2.93331 10.775C2.12111 9.95433 1.66553 8.84632 1.66553 7.69168C1.66553 6.53704 2.12111 5.42903 2.93331 4.60835C3.75186 3.79211 4.86067 3.33374 6.01664 3.33374C7.17262 3.33374 8.28142 3.79211 9.09998 4.60835L9.99998 5.50835L10.9 4.60835C11.7185 3.79211 12.8273 3.33374 13.9833 3.33374C15.1393 3.33374 16.2481 3.79211 17.0666 4.60835C17.8788 5.42903 18.3344 6.53704 18.3344 7.69168C18.3344 8.84632 17.8788 9.95433 17.0666 10.775L10.5916 17.2583C10.5138 17.3356 10.4214 17.3967 10.3199 17.4382C10.2184 17.4796 10.1096 17.5006 9.99998 17.5ZM6.01664 5.00001C5.66387 4.99842 5.31429 5.06683 4.98815 5.20129C4.66201 5.33576 4.36578 5.53359 4.11664 5.78335C3.61336 6.28928 3.33084 6.97389 3.33084 7.68751C3.33084 8.40114 3.61336 9.08575 4.11664 9.59168L9.99998 15.4833L15.8833 9.59168C16.3866 9.08575 16.6691 8.40114 16.6691 7.68751C16.6691 6.97389 16.3866 6.28928 15.8833 5.78335C15.3697 5.2981 14.6899 5.02776 13.9833 5.02776C13.2767 5.02776 12.5969 5.2981 12.0833 5.78335L10.5916 7.28335C10.5142 7.36145 10.422 7.42345 10.3205 7.46576C10.2189 7.50806 10.11 7.52985 9.99998 7.52985C9.88997 7.52985 9.78104 7.50806 9.67949 7.46576C9.57795 7.42345 9.48578 7.36145 9.40831 7.28335L7.91664 5.78335C7.6675 5.53359 7.37128 5.33576 7.04514 5.20129C6.71899 5.06683 6.36941 4.99842 6.01664 5.00001Z" fill="#504D4D" fill-opacity="0.5"/>
</svg>
